<?xml version="1.0" encoding="utf-8"?>
<!-- Generator: Adobe Illustrator 27.7.0, SVG Export Plug-In . SVG Version: 6.00 Build 0)  -->
<svg version="1.1" id="Layer_1" xmlns="http://www.w3.org/2000/svg" xmlns:xlink="http://www.w3.org/1999/xlink" x="0px" y="0px"
	 viewBox="0 0 32 32" style="enable-background:new 0 0 32 32;" xml:space="preserve">
<style type="text/css">
	.st0{fill:#916438;}
	.st1{opacity:0.49;fill:#F7941D;}
	.st2{opacity:0.65;fill:url(#SVGID_1_);}
	.st3{opacity:0.65;fill:url(#SVGID_00000059285032254325736250000008974701739647859877_);}
	.st4{opacity:0.65;fill:url(#SVGID_00000084489983709269599620000017797418726054623676_);}
	.st5{fill:#009444;}
	.st6{opacity:0.69;fill:#006838;}
	.st7{opacity:0.69;fill:#00A79D;}
	.st8{fill:#006838;}
	.st9{fill:none;stroke:#000000;stroke-linecap:round;stroke-miterlimit:10;}
	.st10{fill:#FFFFFF;}
</style>
<path class="st0" d="M19.86,31.59h-7.76c-6.47,0-11.76-5.29-11.76-11.76V19.3c0-6.41,5.2-11.67,11.6-11.76c0.06,0,0.11,0,0.17,0
	h7.76c6.47,0,11.76,5.29,11.76,11.76v0.53C31.62,26.3,26.33,31.59,19.86,31.59z"/>
<path class="st1" d="M19.63,31.59h-7.39c-6.16,0-11.19-5.29-11.19-11.76V19.3C1.05,12.88,6,7.62,12.08,7.53c0.05,0,0.11,0,0.16,0
	h7.39c6.16,0,11.19,5.29,11.19,11.76v0.53C30.82,26.3,25.79,31.59,19.63,31.59z"/>
<radialGradient id="SVGID_1_" cx="15.9758" cy="19.5436" r="13.0703" gradientUnits="userSpaceOnUse">
	<stop  offset="0" style="stop-color:#C49A6C"/>
	<stop  offset="0.0819" style="stop-color:#C49A6C"/>
	<stop  offset="0.4456" style="stop-color:#C59A6A"/>
	<stop  offset="0.6091" style="stop-color:#C99965"/>
	<stop  offset="0.7324" style="stop-color:#D1995B"/>
	<stop  offset="0.8357" style="stop-color:#DB974C"/>
	<stop  offset="0.9253" style="stop-color:#E89538"/>
	<stop  offset="1" style="stop-color:#F7941D"/>
</radialGradient>
<path class="st2" d="M19.46,31.56h-6.97c-5.81,0-10.56-5.29-10.56-11.75v-0.53c0-6.4,4.67-11.65,10.41-11.74c0.05,0,0.1,0,0.15,0
	h6.97c5.81,0,10.56,5.29,10.56,11.75v0.53C30.03,26.27,25.27,31.56,19.46,31.56z"/>
<path class="st0" d="M18.96,31.56h-5.93c-4.94,0-8.98-5.29-8.98-11.75v-0.53c0-6.4,3.97-11.65,8.86-11.74c0.04,0,0.08,0,0.13,0h5.93
	c4.94,0,8.98,5.29,8.98,11.75v0.53C27.95,26.27,23.91,31.56,18.96,31.56z"/>
<path class="st1" d="M18.76,31.69h-5.48c-4.57,0-8.31-5.29-8.31-11.75v-0.53c0-6.4,3.67-11.65,8.19-11.74c0.04,0,0.08,0,0.12,0h5.48
	c4.57,0,8.31,5.29,8.31,11.75v0.53C27.07,26.4,23.33,31.69,18.76,31.69z"/>
<radialGradient id="SVGID_00000170251985083316906200000006662934617544332721_" cx="15.9869" cy="19.4573" r="11.2164" gradientUnits="userSpaceOnUse">
	<stop  offset="0" style="stop-color:#C49A6C"/>
	<stop  offset="0.0819" style="stop-color:#C49A6C"/>
	<stop  offset="0.4456" style="stop-color:#C59A6A"/>
	<stop  offset="0.6091" style="stop-color:#C99965"/>
	<stop  offset="0.7324" style="stop-color:#D1995B"/>
	<stop  offset="0.8357" style="stop-color:#DB974C"/>
	<stop  offset="0.9253" style="stop-color:#E89538"/>
	<stop  offset="1" style="stop-color:#F7941D"/>
</radialGradient>
<path style="opacity:0.65;fill:url(#SVGID_00000170251985083316906200000006662934617544332721_);" d="M18.58,31.38h-5.19
	c-4.33,0-7.86-5.25-7.86-11.66v-0.53c0-6.36,3.48-11.57,7.75-11.66c0.04,0,0.07,0,0.11,0h5.19c4.33,0,7.86,5.25,7.86,11.66v0.53
	C26.45,26.14,22.91,31.38,18.58,31.38z"/>
<path class="st0" d="M17.92,31.27h-3.85c-3.21,0-5.83-5.2-5.83-11.55V19.2c0-6.3,2.58-11.46,5.75-11.55c0.03,0,0.06,0,0.08,0h3.85
	c3.21,0,5.83,5.2,5.83,11.55v0.52C23.76,26.07,21.13,31.27,17.92,31.27z"/>
<path class="st1" d="M17.66,31.47h-3.43c-2.86,0-5.2-5.25-5.2-11.66v-0.53c0-6.36,2.3-11.57,5.13-11.66c0.02,0,0.05,0,0.07,0h3.43
	c2.86,0,5.2,5.25,5.2,11.66v0.53C22.86,26.22,20.52,31.47,17.66,31.47z"/>
<radialGradient id="SVGID_00000157281587876290785070000017340255884200062343_" cx="15.9134" cy="19.4021" r="9.4337" gradientUnits="userSpaceOnUse">
	<stop  offset="0" style="stop-color:#C49A6C"/>
	<stop  offset="0.0819" style="stop-color:#C49A6C"/>
	<stop  offset="0.4456" style="stop-color:#C59A6A"/>
	<stop  offset="0.6091" style="stop-color:#C99965"/>
	<stop  offset="0.7324" style="stop-color:#D1995B"/>
	<stop  offset="0.8357" style="stop-color:#DB974C"/>
	<stop  offset="0.9253" style="stop-color:#E89538"/>
	<stop  offset="1" style="stop-color:#F7941D"/>
</radialGradient>
<ellipse style="opacity:0.65;fill:url(#SVGID_00000157281587876290785070000017340255884200062343_);" cx="15.91" cy="19.4" rx="6.09" ry="11.87"/>
<path class="st5" d="M23.09,10.69c0.21,0.19,1.33,2.09,1.33,2.09s-2.4,0.7-3.48,0.8c-0.09,0.01-0.18,0.01-0.27,0.01
	c-0.79,0.02-1.6-0.17-2.37-0.35c-0.68-0.15-1.38-0.35-1.99-0.69c-0.63-0.36-1.1-0.86-1.49-1.46c-0.3-0.45-0.56-0.93-0.96-1.28
	c-0.65,0.72-1.3,1.44-1.98,2.12C11.32,12.5,10,13.36,10,13.36s-0.23-0.68-0.54-1.48c-0.4-0.98-0.93-2.14-1.34-2.44
	c-0.7-0.51-1.39,0.11-2.15,0.61c-0.24,0.15-0.23,0.43-1,0.46c0.14-0.43,1.87-2.25,2.07-2.38C7.56,7.79,8.25,7.55,8.85,7.4
	C9.41,7.25,10,7.16,10.58,7.1c0.85-0.08,1.71-0.08,2.56-0.06c0.16,0,0.31,0.01,0.47,0.01c-0.32-0.53-0.93-0.95-1.32-1.39
	c-0.58-0.65-1.02-1.39-1.4-2.18c-0.23-0.46-0.57-1.3-0.78-1.84C9.98,1.33,9.9,1.11,9.9,1.11l1.58-0.15c0,0,0.32,0.25,0.58,0.76
	c0.31,0.64,0.53,1.33,0.85,1.97c0.39,0.8,0.91,1.55,1.44,2.27c0.5,0.66,0.91,1.49,1.85,1.47c0.79-0.02,1.59-0.26,2.38-0.34
	c0.83-0.07,1.67-0.07,2.51,0.01c0.75,0.07,2.14,0.6,2.71,0.96c0.41,0.37,1.84,1.41,1.84,1.41s-2.27,0.22-2.54,0.35
	c-0.13,0.06-0.3,0.09-0.42,0.17c-0.12,0.06-0.38,0.17-0.38,0.17s0.17,0.03,0.23,0.12C22.64,10.44,22.95,10.55,23.09,10.69z"/>
<path class="st6" d="M20.66,13.59c-0.79,0.02-1.6-0.17-2.37-0.35c-0.68-0.15-1.38-0.35-1.99-0.69c-0.63-0.36-1.1-0.86-1.49-1.46
	c-0.12-0.19-0.24-0.38-0.36-0.56c-0.18-0.26-0.36-0.51-0.6-0.72c-0.14,0.15-0.27,0.3-0.42,0.45c-0.1,0.11-0.2,0.23-0.31,0.34
	c-0.22,0.25-0.45,0.5-0.69,0.74c-0.17,0.2-0.37,0.4-0.56,0.59c-0.56,0.57-1.88,1.43-1.88,1.43s-0.04-0.13-0.12-0.35
	c0,0-0.04-0.11-0.12-0.32c0-0.01,0-0.01,0-0.02c0,0,0-0.01-0.01-0.02c-0.01-0.03-0.04-0.11-0.08-0.23c-0.06-0.16-0.13-0.32-0.19-0.5
	c-0.01-0.01-0.01-0.03-0.02-0.04l0.01-0.01l2.23-2.25l1.67-1.7c0,0,2.71,0.43,3.61,1.58c0.91,1.15-0.21,1.34,2.55,2.92
	C20.02,12.71,20.4,13.12,20.66,13.59z"/>
<path class="st7" d="M13.52,9.67"/>
<path class="st8" d="M13.71,7.09c-0.01-0.02-0.02-0.05-0.04-0.08c-0.77-1.74-2.22-4.7-3.58-5.75c-0.05-0.04-0.11-0.08-0.16-0.11
	c0.01,0.04,0.03,0.08,0.05,0.13c0.22,0.6,0.55,1.45,0.78,1.92c0.3,0.66,0.63,1.29,1.03,1.86c0.08,0.12,0.17,0.24,0.26,0.35
	c0.05,0.08,0.12,0.15,0.17,0.21c0.4,0.46,1.01,0.92,1.34,1.48L13.71,7.09z"/>
<path class="st9" d="M13.15,22.3c0.2,1.45,1.51,2.5,2.95,2.39c1.47-0.1,2.62-1.37,2.58-2.85"/>
<g>
	<ellipse cx="13.49" cy="16.87" rx="1.42" ry="2.67"/>
	<ellipse cx="18.46" cy="16.87" rx="1.42" ry="2.67"/>
	<circle class="st10" cx="13.38" cy="15.88" r="0.97"/>
	<circle class="st10" cx="14.18" cy="17.49" r="0.39"/>
	<circle class="st10" cx="19.05" cy="17.49" r="0.39"/>
	<circle class="st10" cx="18.3" cy="15.88" r="0.97"/>
</g>
</svg>
